<?xml version="1.0" encoding="UTF-8"?>
<svg width="146px" height="26px" viewBox="0 0 146 26" version="1.1" xmlns="http://www.w3.org/2000/svg" xmlns:xlink="http://www.w3.org/1999/xlink">
    <!-- Generator: Sketch 48.1 (47250) - http://www.bohemiancoding.com/sketch -->
    <title>Blanket.</title>
    <desc>Created with Sketch.</desc>
    <defs></defs>
    <g id="Collection-scroll" stroke="none" stroke-width="1" fill="none" fill-rule="evenodd" transform="translate(-74.000000, -84.000000)">
        <g id="Group" transform="translate(50.000000, 50.000000)" fill="#000000">
            <path d="M44.808,45.536 C45.2640023,45.8480016 45.7799971,46.1839982 46.356,46.544 C46.9320029,46.9040018 47.4659975,47.3659972 47.958,47.93 C48.4500025,48.4940028 48.8339986,49.2019957 49.11,50.054 C49.3860014,50.9060043 49.4760005,51.9799935 49.38,53.276 C49.3319998,53.9240032 49.1640014,54.5059974 48.876,55.022 C48.5879986,55.5380026 48.2340021,55.9819981 47.814,56.354 C47.3939979,56.7260019 46.9260026,57.0499986 46.41,57.326 C45.8939974,57.6020014 45.3720026,57.835999 44.844,58.028 C43.5959938,58.4600022 42.1920078,58.7479993 40.632,58.892 L28.212,59 C28.1879999,56.1439857 28.1640001,53.5040121 28.14,51.08 C28.14,50.0479948 28.1340001,49.0100052 28.122,47.966 C28.1099999,46.9219948 28.104,45.9440046 28.104,45.032 L28.104,40.964 C28.104,40.2439964 27.9180019,39.7040018 27.546,39.344 C27.1739981,38.9839982 26.7720022,38.7440006 26.34,38.624 C25.8119974,38.4799993 25.2240032,38.4199999 24.576,38.444 L24.576,34.916 L41.064,34.916 C41.8320038,34.9640002 42.5519966,35.1559983 43.224,35.492 C43.8960034,35.8280017 44.4719976,36.1879981 44.952,36.572 C45.5280029,37.0040022 46.0319978,37.4959972 46.464,38.048 C47.2320038,39.4640071 47.5860003,40.6519952 47.526,41.612 C47.4659997,42.5720048 47.232002,43.3399971 46.824,43.916 C46.3679977,44.6120035 45.6960044,45.1519981 44.808,45.536 Z M41.676,42.008 C41.676,41.4799974 41.5920008,41.0360018 41.424,40.676 C41.2559992,40.3159982 41.0280014,40.0100013 40.74,39.758 C40.4519986,39.5059987 40.1280018,39.3140007 39.768,39.182 C39.4079982,39.0499993 39.0360019,38.9480004 38.652,38.876 C37.7639956,38.7319993 36.7560056,38.7319993 35.628,38.876 L35.628,44.924 C36.7560056,45.1400011 37.7639956,45.2000005 38.652,45.104 C39.0360019,45.0559998 39.4079982,44.9720006 39.768,44.852 C40.1280018,44.7319994 40.4519986,44.5520012 40.74,44.312 C41.0280014,44.0719988 41.2559992,43.7660019 41.424,43.394 C41.5920008,43.0219981 41.676,42.5600028 41.676,42.008 Z M35.628,55.364 C36.7560056,55.556001 37.7639956,55.5920006 38.652,55.472 C39.0360019,55.4239998 39.4079982,55.3340007 39.768,55.202 C40.1280018,55.0699993 40.4519986,54.8900011 40.74,54.662 C41.0280014,54.4339989 41.2559992,54.1400018 41.424,53.78 C41.5920008,53.4199982 41.676,52.9760026 41.676,52.448 C41.676,51.8959972 41.5920008,51.4280019 41.424,51.044 C41.2559992,50.6599981 41.0280014,50.3360013 40.74,50.072 C40.4519986,49.8079987 40.1280018,49.6040007 39.768,49.46 C39.4079982,49.3159993 39.0360019,49.2080004 38.652,49.136 C37.7639956,48.9679992 36.7560056,48.9559993 35.628,49.1 L35.628,55.364 Z M58.92,59.072 L50.532,59.072 L50.532,56.084 C50.9880023,56.1320002 51.3959982,56.1080005 51.756,56.012 C52.0680016,55.9159995 52.3559987,55.7420013 52.62,55.49 C52.8840013,55.2379987 53.0399998,54.8360028 53.088,54.284 C53.1120001,54.0439988 53.1299999,53.6120031 53.142,52.988 C53.1540001,52.3639969 53.16,51.6380041 53.16,50.81 C53.16,49.9819959 53.1659999,49.0760049 53.178,48.092 C53.1900001,47.1079951 53.196,46.1240049 53.196,45.14 C53.196,42.8119884 53.2079999,40.2560139 53.232,37.472 L58.92,34.772 L58.92,59.072 Z M73.248,42.944 L78.684,42.476 L78.54,51.476 C78.5159999,52.076003 78.5279998,52.6039977 78.576,53.06 C78.6240002,53.468002 78.6959995,53.8279984 78.792,54.14 C78.8880005,54.4520016 79.0439989,54.608 79.26,54.608 C79.452001,54.608 79.6139993,54.4820013 79.746,54.23 C79.8780007,53.9779987 79.9799996,53.6960016 80.052,53.384 C80.1480005,53.0239982 80.2079999,52.6040024 80.232,52.124 L81.78,52.124 C81.8520004,52.4600017 81.888,52.831998 81.888,53.24 C81.888,53.5760017 81.8520004,53.9839976 81.78,54.464 C81.7079996,54.9440024 81.5520012,55.4599972 81.312,56.012 C81.119999,56.5880029 80.8860014,57.0679981 80.61,57.452 C80.3339986,57.8360019 80.0340016,58.1479988 79.71,58.388 C79.3859984,58.6280012 79.0560017,58.8079994 78.72,58.928 C78.3839983,59.0480006 78.0600016,59.1439996 77.748,59.216 C77.4119983,59.2640002 76.9860026,59.1800011 76.47,58.964 C75.9539974,58.7479989 75.4440025,58.4960014 74.94,58.208 C74.339997,57.8719983 73.7160032,57.4880022 73.068,57.056 C72.5159972,57.4160018 72.0240022,57.7399986 71.592,58.028 C71.2079981,58.2920013 70.8300019,58.5439988 70.458,58.784 C70.0859981,59.0240012 69.8280007,59.1679998 69.684,59.216 C69.5639994,59.2640002 69.2880022,59.3479994 68.856,59.468 C68.4239978,59.5880006 67.8960031,59.6420001 67.272,59.63 C66.6479969,59.6179999 65.9520038,59.4740014 65.184,59.198 C64.4159962,58.9219986 63.6480038,58.4120037 62.88,57.668 C62.087996,56.8999962 61.5240017,56.0660045 61.188,55.166 C60.8519983,54.2659955 60.6240006,53.4320038 60.504,52.664 C60.3839994,51.7519954 60.3839994,50.8520044 60.504,49.964 C60.5520002,48.9319948 60.7199986,47.9360048 61.008,46.976 C61.2720013,46.1599959 61.6739973,45.3200043 62.214,44.456 C62.7540027,43.5919957 63.527995,42.8840028 64.536,42.332 C65.544005,41.7799972 66.545995,41.5339997 67.542,41.594 C68.538005,41.6540003 69.431996,41.8159987 70.224,42.08 C71.1600047,42.3920016 72.0599957,42.847997 72.924,43.448 L73.248,42.944 Z M69.684,45.248 C68.9879965,45.248 68.4000024,45.6319962 67.92,46.4 C67.4399976,47.1680038 67.2,48.3079924 67.2,49.82 C67.2,51.3800078 67.4399976,52.5799958 67.92,53.42 C68.4000024,54.2600042 68.9879965,54.68 69.684,54.68 C70.3800035,54.68 70.9919974,54.2600042 71.52,53.42 C72.0480026,52.5799958 72.312,51.3800078 72.312,49.82 C72.312,48.3079924 72.0480026,47.1680038 71.52,46.4 C70.9919974,45.6319962 70.3800035,45.248 69.684,45.248 Z M91.248,43.088 L91.248,43.016 C92.1600046,42.4879974 93.1079951,42.0920013 94.092,41.828 C94.9320042,41.6119989 95.8859947,41.504 96.954,41.504 C98.0220053,41.504 99.0959946,41.803997 100.176,42.404 C100.776003,42.7160016 101.213999,43.0879978 101.49,43.52 C101.766001,43.9520022 101.963999,44.371998 102.084,44.78 C102.204001,45.2600024 102.252,45.7519975 102.228,46.256 L102.264,59.072 L96.468,59.072 L96.468,48.884 C96.468,48.0679959 96.2040026,47.4020026 95.676,46.886 C95.1479974,46.3699974 94.5660032,46.0760004 93.93,46.004 C93.2939968,45.9319996 92.7000028,46.1299977 92.148,46.598 C91.5959972,47.0660023 91.2960002,47.8879941 91.248,49.064 L91.248,58.928 L91.104,58.928 L91.104,59.072 L82.788,59.072 L82.788,55.94 C83.2440023,55.9640001 83.6639981,55.9160006 84.048,55.796 C84.3840017,55.6759994 84.6839987,55.4840013 84.948,55.22 C85.2120013,54.9559987 85.344,54.524003 85.344,53.924 L85.344,52.556 C85.344,52.0759976 85.3499999,51.4460039 85.362,50.666 C85.3740001,49.8859961 85.3859999,48.9140058 85.398,47.75 C85.4100001,46.5859942 85.4279999,45.104009 85.452,43.304 L91.248,41.576 L91.248,43.088 Z M111.12,59.072 L103.128,59.072 L103.128,56.048 C103.608002,56.0720001 104.027998,56.0360005 104.388,55.94 C104.700002,55.8439995 104.981999,55.6700013 105.234,55.418 C105.486001,55.1659987 105.588,54.7760026 105.54,54.248 L105.54,52.862 C105.54,52.2259968 105.546,51.4760043 105.558,50.612 C105.57,49.7479957 105.582,48.818005 105.594,47.822 C105.606,46.825995 105.612,45.824005 105.612,44.816 C105.636,42.4639882 105.66,39.884014 105.684,37.076 L111.12,34.808 L111.12,48.704 C111.480002,48.7280001 111.839998,48.7160002 112.2,48.668 C112.512002,48.6199998 112.823998,48.5600004 113.136,48.488 C113.448002,48.4159996 113.723999,48.284001 113.964,48.092 C114.348002,47.7079981 114.468001,47.3060021 114.324,46.886 C114.179999,46.4659979 113.664004,46.256 112.776,46.256 L112.92,44.168 L121.02,43.988 C121.236001,45.2840065 121.284001,46.4599947 121.164,47.516 C121.116,47.9720023 121.026001,48.4159978 120.894,48.848 C120.761999,49.2800022 120.576001,49.6759982 120.336,50.036 C120.095999,50.3960018 119.784002,50.6959988 119.4,50.936 C119.015998,51.1760012 118.560003,51.3199998 118.032,51.368 L123.468,58.892 L116.232,59.072 L112.596,54.716 C112.307999,54.523999 112.056001,54.4040002 111.84,54.356 C111.647999,54.3079998 111.480001,54.3319995 111.336,54.428 C111.191999,54.5240005 111.12,54.7639981 111.12,55.148 L111.12,59.072 Z M136.788,52.916 L141.684,52.628 C141.563999,53.9000064 141.144004,55.039995 140.424,56.048 C140.111998,56.4800022 139.722002,56.9059979 139.254,57.326 C138.785998,57.7460021 138.222003,58.1239983 137.562,58.46 C136.901997,58.7960017 136.122005,59.0779989 135.222,59.306 C134.321996,59.5340011 133.296006,59.6599999 132.144,59.684 C130.559992,59.5399993 129.132006,59.1320034 127.86,58.46 C127.307997,58.1719986 126.774003,57.8180021 126.258,57.398 C125.741997,56.9779979 125.274002,56.468003 124.854,55.868 C124.433998,55.267997 124.092001,54.572004 123.828,53.78 C123.563999,52.987996 123.42,52.0760052 123.396,51.044 C123.324,47.9959848 124.073992,45.6260085 125.646,43.934 C127.218008,42.2419915 129.419986,41.3480005 132.252,41.252 C134.004009,41.2039998 135.461994,41.4019978 136.626,41.846 C137.790006,42.2900022 138.731996,42.8719964 139.452,43.592 C140.172004,44.3120036 140.705998,45.0979957 141.054,45.95 C141.402002,46.8020043 141.635999,47.5999963 141.756,48.344 C141.876001,49.0880037 141.93,49.7059975 141.918,50.198 C141.906,50.6900025 141.888,50.936 141.864,50.936 L129.48,51.368 C129.600001,52.0880036 129.791999,52.7359971 130.056,53.312 C130.296001,53.7920024 130.625998,54.235998 131.046,54.644 C131.466002,55.052002 132.035996,55.2679999 132.756,55.292 C133.476004,55.3400002 134.081998,55.2860008 134.574,55.13 C135.066002,54.9739992 135.461999,54.7700013 135.762,54.518 C136.062002,54.2659987 136.289999,53.9900015 136.446,53.69 C136.602001,53.3899985 136.716,53.1320011 136.788,52.916 Z M133.152,44.636 C132.407996,44.7080004 131.844002,44.9359981 131.46,45.32 C131.075998,45.7040019 130.788001,46.1119978 130.596,46.544 C130.379999,47.0480025 130.26,47.6119969 130.236,48.236 L136.068,48.02 C135.972,47.3959969 135.792001,46.8440024 135.528,46.364 C135.311999,45.955998 135.012002,45.5720018 134.628,45.212 C134.243998,44.8519982 133.752003,44.6600001 133.152,44.636 Z M155.4,49.136 L159.072,49.1 C159.072,49.3880014 159.078,49.7899974 159.09,50.306 C159.102,50.8220026 159.108,51.379997 159.108,51.98 C159.108,52.580003 159.102,53.1739971 159.09,53.762 C159.078,54.3500029 159.072,54.8599978 159.072,55.292 C159.048,55.6280017 159,55.9699983 158.928,56.318 C158.856,56.6660017 158.664002,57.0079983 158.352,57.344 C157.727997,58.0160034 156.924005,58.549998 155.94,58.946 C154.955995,59.342002 153.888006,59.54 152.736,59.54 C151.535994,59.54 150.516004,59.3300021 149.676,58.91 C148.835996,58.4899979 148.164003,58.0040028 147.66,57.452 C147.491999,57.259999 147.372,57.0440012 147.3,56.804 C147.228,56.5639988 147.168,56.3360011 147.12,56.12 C147.072,55.8559987 147.048,55.5920013 147.048,55.328 L146.94,48.308 L142.656,48.272 L142.656,43.376 L146.688,43.376 L146.688,37.148 L152.7,34.628 L152.736,43.376 L159.108,43.34 L159.108,46.688 L152.7,46.688 C152.7,47.5280042 152.694,48.4279952 152.682,49.388 C152.67,50.3480048 152.688,51.2119962 152.736,51.98 C152.76,52.388002 152.82,52.7599983 152.916,53.096 C152.988,53.3840014 153.101999,53.6599987 153.258,53.924 C153.414001,54.1880013 153.623999,54.3439998 153.888,54.392 C154.152001,54.392 154.403999,54.3320006 154.644,54.212 C154.836001,54.0919994 155.009999,53.9060013 155.166,53.654 C155.322001,53.4019987 155.4,53.0240025 155.4,52.52 L155.4,49.1 L155.4,49.136 Z M169.26,56.048 C169.212,56.840004 169.008002,57.4939974 168.648,58.01 C168.287998,58.5260026 167.850003,58.9159987 167.334,59.18 C166.817997,59.4440013 166.266003,59.576 165.678,59.576 C165.089997,59.576 164.544003,59.4440013 164.04,59.18 C163.535997,58.9159987 163.116002,58.5260026 162.78,58.01 C162.443998,57.4939974 162.276,56.840004 162.276,56.048 C162.276,55.0639951 162.593997,54.2540032 163.23,53.618 C163.866003,52.9819968 164.675995,52.664 165.66,52.664 C166.140002,52.664 166.595998,52.7479992 167.028,52.916 C167.460002,53.0840008 167.843998,53.3179985 168.18,53.618 C168.516002,53.9180015 168.779999,54.2779979 168.972,54.698 C169.164001,55.1180021 169.26,55.5679976 169.26,56.048 Z" id="Blanket."></path>
        </g>
    </g>
</svg>